<?xml version="1.0" encoding="UTF-8" standalone="no"?>
<!-- Created with Inkscape (http://www.inkscape.org/) -->

<svg
   xmlns:dc="http://purl.org/dc/elements/1.1/"
   xmlns:cc="http://creativecommons.org/ns#"
   xmlns:rdf="http://www.w3.org/1999/02/22-rdf-syntax-ns#"
   xmlns:svg="http://www.w3.org/2000/svg"
   xmlns="http://www.w3.org/2000/svg"
   xmlns:sodipodi="http://sodipodi.sourceforge.net/DTD/sodipodi-0.dtd"
   xmlns:inkscape="http://www.inkscape.org/namespaces/inkscape"
   width="1000"
   height="1000"
   id="svg2"
   version="1.1"
   inkscape:version="0.48.4 r9939"
   sodipodi:docname="launcher.svg"
   inkscape:export-filename="/home/nikka/Desktop/PDF-Drive/launcher.png"
   inkscape:export-xdpi="92.160004"
   inkscape:export-ydpi="92.160004">
  <defs
     id="defs4" />
  <sodipodi:namedview
     id="base"
     pagecolor="#ffffff"
     bordercolor="#666666"
     borderopacity="1.0"
     inkscape:pageopacity="0.0"
     inkscape:pageshadow="2"
     inkscape:zoom="0.7"
     inkscape:cx="401.98044"
     inkscape:cy="526.78654"
     inkscape:document-units="px"
     inkscape:current-layer="layer1"
     showgrid="true"
     showguides="true"
     inkscape:guide-bbox="true"
     inkscape:window-width="1600"
     inkscape:window-height="852"
     inkscape:window-x="0"
     inkscape:window-y="0"
     inkscape:window-maximized="1">
    <inkscape:grid
       type="xygrid"
       id="grid2985"
       empspacing="5"
       visible="true"
       enabled="true"
       snapvisiblegridlinesonly="true" />
    <sodipodi:guide
       orientation="0,1"
       position="0,1000"
       id="guide2987" />
    <sodipodi:guide
       orientation="0,1"
       position="1000,0"
       id="guide2989" />
    <sodipodi:guide
       orientation="1,0"
       position="0,0"
       id="guide2991" />
    <sodipodi:guide
       orientation="1,0"
       position="1000,1000"
       id="guide2993" />
  </sodipodi:namedview>
  <metadata
     id="metadata7">
    <rdf:RDF>
      <cc:Work
         rdf:about="">
        <dc:format>image/svg+xml</dc:format>
        <dc:type
           rdf:resource="http://purl.org/dc/dcmitype/StillImage" />
        <dc:title></dc:title>
      </cc:Work>
    </rdf:RDF>
  </metadata>
  <g
     inkscape:label="Layer 1"
     inkscape:groupmode="layer"
     id="layer1"
     transform="translate(0,-52.362183)">
    <rect
       style="fill:#ffffff;fill-opacity:1;stroke:none;stroke-width:13.42399978999999988;stroke-linecap:round;stroke-linejoin:round;stroke-miterlimit:4;stroke-opacity:0.48076925999999998;stroke-dasharray:none;stroke-dashoffset:0"
       id="rect3009"
       width="680"
       height="680"
       x="160"
       y="160"
       transform="translate(0,52.362183)" />
    <g
       transform="matrix(5.0146254,0,0,5.4425108,-671.50638,-712.09859)"
       style="font-size:40px;font-style:normal;font-variant:normal;font-weight:normal;font-stretch:normal;line-height:125%;letter-spacing:0px;word-spacing:0px;fill:#f20000;fill-opacity:0.63461537;stroke:none;font-family:FreeMono;-inkscape-font-specification:FreeMono"
       id="flowRoot3789">
      <path
         d="m 184.38125,204.4475 0,7.6 5.52,0 c 0.74665,0 1.11999,0.26667 1.12,0.8 -1e-5,0.56 -0.37335,0.84 -1.12,0.84 l -9.32,0 c -0.72,0 -1.08,-0.28 -1.08,-0.84 0,-0.53333 0.36,-0.8 1.08,-0.8 l 2.16,0 0,-19.24 -2.16,0 c -0.72,2e-5 -1.08,-0.27998 -1.08,-0.84 0,-0.53331 0.36,-0.79998 1.08,-0.8 l 9.6,0 c 2.13332,2e-5 3.91998,0.64002 5.36,1.92 1.46665,1.25335 2.19998,2.81335 2.2,4.68 -2e-5,1.86668 -0.78669,3.45335 -2.36,4.76 -1.57335,1.28001 -3.49335,1.92001 -5.76,1.92 l -5.24,0 m 0,-1.64 5.36,0 c 1.73332,1e-5 3.22665,-0.49332 4.48,-1.48 1.25332,-0.98665 1.87998,-2.17332 1.88,-3.56 -2e-5,-1.35998 -0.57335,-2.51998 -1.72,-3.48 -1.12002,-0.98665 -2.46668,-1.47998 -4.04,-1.48 l -5.96,0 0,10"
         style=""
         id="path3841" />
      <path
         d="m 205.92562,212.0475 0,-19.24 -1.36,0 c -0.72,2e-5 -1.08,-0.27998 -1.08,-0.84 0,-0.53331 0.36,-0.79998 1.08,-0.8 l 8.8,0 c 2.58666,2e-5 4.75999,0.98669 6.52,2.96 1.78665,1.94668 2.67998,4.33335 2.68,7.16 l 0,2.24 c -2e-5,2.85334 -0.89335,5.26667 -2.68,7.24 -1.76001,1.94667 -3.93334,2.92 -6.52,2.92 l -8.8,0 c -0.72,0 -1.08,-0.28 -1.08,-0.84 0,-0.53333 0.36,-0.8 1.08,-0.8 l 1.36,0 m 15,-11.08 c -1e-5,-0.53332 -0.12001,-1.19999 -0.36,-2 -0.24001,-0.79998 -0.62668,-1.67998 -1.16,-2.64 -0.50668,-0.98665 -1.30668,-1.81331 -2.4,-2.48 -1.06668,-0.69331 -2.30667,-1.03998 -3.72,-1.04 l -5.72,0 0,19.24 6,0 c 1.91999,0 3.62666,-0.82666 5.12,-2.48 1.49332,-1.65333 2.23999,-3.54666 2.24,-5.68 l 0,-2.92"
         style=""
         id="path3843" />
      <path
         d="m 232.35,202.8075 0,9.24 5.52,0 c 0.74665,0 1.11999,0.26667 1.12,0.8 -1e-5,0.56 -0.37335,0.84 -1.12,0.84 l -9.32,0 c -0.72,0 -1.08,-0.28 -1.08,-0.84 0,-0.53333 0.36,-0.8 1.08,-0.8 l 2.16,0 0,-19.24 -2.16,0 c -0.72,2e-5 -1.08,-0.27998 -1.08,-0.84 0,-0.53331 0.36,-0.79998 1.08,-0.8 l 18,0 0,5.56 c -2e-5,0.72002 -0.28002,1.08002 -0.84,1.08 -0.53335,2e-5 -0.80002,-0.35998 -0.8,-1.08 l 0,-3.92 -12.56,0 0,8.36 5.8,0 0,-1.8 c -1e-5,-0.71998 0.26665,-1.07998 0.8,-1.08 0.55999,2e-5 0.83999,0.36002 0.84,1.08 l 0,5.24 c -1e-5,0.72001 -0.28001,1.08001 -0.84,1.08 -0.53335,1e-5 -0.80001,-0.35999 -0.8,-1.08 l 0,-1.8 -5.8,0"
         style=""
         id="path3845" />
      <path
         d="m 181.94125,262.0475 0,-19.24 -1.36,0 c -0.72,2e-5 -1.08,-0.27998 -1.08,-0.84 0,-0.53331 0.36,-0.79998 1.08,-0.8 l 8.8,0 c 2.58665,2e-5 4.75998,0.98669 6.52,2.96 1.78665,1.94668 2.67998,4.33335 2.68,7.16 l 0,2.24 c -2e-5,2.85334 -0.89335,5.26667 -2.68,7.24 -1.76002,1.94667 -3.93335,2.92 -6.52,2.92 l -8.8,0 c -0.72,0 -1.08,-0.28 -1.08,-0.84 0,-0.53333 0.36,-0.8 1.08,-0.8 l 1.36,0 m 15,-11.08 c -2e-5,-0.53332 -0.12002,-1.19999 -0.36,-2 -0.24002,-0.79998 -0.62668,-1.67998 -1.16,-2.64 -0.50668,-0.98665 -1.30668,-1.81331 -2.4,-2.48 -1.06668,-0.69331 -2.30668,-1.03998 -3.72,-1.04 l -5.72,0 0,19.24 6,0 c 1.91999,0 3.62665,-0.82666 5.12,-2.48 1.49331,-1.65333 2.23998,-3.54666 2.24,-5.68 l 0,-2.92"
         style=""
         id="path3847" />
      <path
         d="m 208.36562,253.6475 0,8.4 3,0 c 0.71999,0 1.07999,0.26667 1.08,0.8 -1e-5,0.56 -0.36001,0.84 -1.08,0.84 l -6.8,0 c -0.72,0 -1.08,-0.28 -1.08,-0.84 0,-0.53333 0.36,-0.8 1.08,-0.8 l 2.16,0 0,-19.24 -2.16,0 c -0.72,2e-5 -1.08,-0.27998 -1.08,-0.84 0,-0.53331 0.36,-0.79998 1.08,-0.8 l 9.92,0 c 1.94666,2e-5 3.62666,0.62669 5.04,1.88 1.43999,1.22669 2.15999,2.68002 2.16001,4.36 -2e-5,2.58668 -1.85336,4.52001 -5.56,5.8 1.25331,0.85334 2.30664,1.82668 3.15999,2.92 0.85332,1.09334 2.09332,3.06667 3.72,5.92 l 1.24001,0 c 0.71997,0 1.07997,0.26667 1.07999,0.8 -2e-5,0.56 -0.36002,0.84 -1.07999,0.84 l -2.28001,0 c -1.76001,-3.25333 -3.21335,-5.55999 -4.36,-6.92 -1.12001,-1.38666 -2.44001,-2.42666 -3.96,-3.12 l -5.28,0 m 0,-1.64 4.56,0 c 1.97333,1e-5 3.65332,-0.45332 5.04,-1.36 1.38665,-0.90665 2.07999,-1.99998 2.08,-3.28 -1e-5,-1.19998 -0.57335,-2.25331 -1.72,-3.16 -1.12001,-0.93331 -2.40001,-1.39998 -3.84,-1.4 l -6.12,0 0,9.2"
         style=""
         id="path3849" />
      <path
         d="m 238.55,242.8075 0,19.24 5.56,0 c 0.74665,0 1.11998,0.26667 1.12,0.8 -2e-5,0.56 -0.37335,0.84 -1.12,0.84 l -12.76,0 c -0.72,0 -1.08,-0.28 -1.08,-0.84 0,-0.53333 0.36,-0.8 1.08,-0.8 l 5.56,0 0,-19.24 -5.56,0 c -0.72,2e-5 -1.08,-0.27998 -1.08,-0.84 0,-0.53331 0.36,-0.79998 1.08,-0.8 l 12.76,0 c 0.74665,2e-5 1.11998,0.26669 1.12,0.8 -2e-5,0.56002 -0.37335,0.84002 -1.12,0.84 l -5.56,0"
         style=""
         id="path3851" />
      <path
         d="m 260.41437,263.6875 -8,-20.88 -1.24,0 c -0.72,2e-5 -1.08,-0.27998 -1.07999,-0.84 -1e-5,-0.53331 0.35999,-0.79998 1.07999,-0.8 l 6.04001,0 c 0.71999,2e-5 1.07999,0.26669 1.07999,0.8 0,0.56002 -0.36,0.84002 -1.07999,0.84 l -3.08001,0 7.44,19.24 0.12,0 7.72,-19.24 -3.12,0 c -0.72001,2e-5 -1.08001,-0.27998 -1.07999,-0.84 -2e-5,-0.53331 0.35998,-0.79998 1.07999,-0.8 l 6,0 c 0.71998,2e-5 1.07998,0.26669 1.08,0.8 -2e-5,0.56002 -0.36002,0.84002 -1.08,0.84 l -1.24,0 -8.36,20.88 -2.28,0"
         style=""
         id="path3853" />
      <path
         d="m 280.31875,252.8075 0,9.24 12.56,0 0,-4.76 c -2e-5,-0.71999 0.27998,-1.07999 0.84,-1.08 0.53331,1e-5 0.79998,0.36001 0.8,1.08 l 0,6.4 -18,0 c -0.72,0 -1.08,-0.28 -1.08,-0.84 0,-0.53333 0.36,-0.8 1.08,-0.8 l 2.16,0 0,-19.24 -2.16,0 c -0.72,2e-5 -1.08,-0.27998 -1.08,-0.84 0,-0.53331 0.36,-0.79998 1.08,-0.8 l 17.16,0 0,5.56 c -2e-5,0.72002 -0.28002,1.08002 -0.84,1.08 -0.53335,2e-5 -0.80002,-0.35998 -0.8,-1.08 l 0,-3.92 -11.72,0 0,8.36 5.8,0 0,-1.8 c -10e-6,-0.71998 0.27999,-1.07998 0.84,-1.08 0.53332,2e-5 0.79999,0.36002 0.8,1.08 l 0,5.24 c -1e-5,0.72001 -0.26668,1.08001 -0.8,1.08 -0.56001,1e-5 -0.84001,-0.35999 -0.84,-1.08 l 0,-1.8 -5.8,0"
         style=""
         id="path3855" />
    </g>
    <path
       transform="matrix(0.64648956,-0.76292284,0.72335311,0.6904783,0,0)"
       style="fill:#896969;fill-opacity:0.63461537;stroke:none"
       d="m -169.99471,244.87186 232.451451,0 0,986.97984 -232.451451,0 z"
       id="rect3801" />
    <path
       style="fill:#2f0202;stroke:none;stroke-width:10.09999999999999964;stroke-linecap:butt;stroke-linejoin:miter;stroke-opacity:1;fill-opacity:1;stroke-miterlimit:4;stroke-dasharray:none"
       d="M 60 60 L 60 940 L 940 940 L 940 180 L 840 220 L 840 840 L 160 840 L 160 160 L 802.5 160 L 740 60 L 60 60 z M 802.5 160 L 840 220 L 840 160 L 802.5 160 z "
       transform="translate(0,52.362183)"
       id="path2997" />
    <g
       transform="matrix(5.0146254,0,0,5.4425108,-671.50638,-764.24686)"
       style="font-size:40px;font-style:normal;font-variant:normal;font-weight:normal;font-stretch:normal;line-height:125%;letter-spacing:0px;word-spacing:0px;fill:#4e4e4e;fill-opacity:1;stroke:none;font-family:FreeMono;-inkscape-font-specification:FreeMono"
       id="flowRoot3775">
      <path
         d="m 184.38125,204.4475 0,7.6 5.52,0 c 0.74665,0 1.11999,0.26667 1.12,0.8 -1e-5,0.56 -0.37335,0.84 -1.12,0.84 l -9.32,0 c -0.72,0 -1.08,-0.28 -1.08,-0.84 0,-0.53333 0.36,-0.8 1.08,-0.8 l 2.16,0 0,-19.24 -2.16,0 c -0.72,2e-5 -1.08,-0.27998 -1.08,-0.84 0,-0.53331 0.36,-0.79998 1.08,-0.8 l 9.6,0 c 2.13332,2e-5 3.91998,0.64002 5.36,1.92 1.46665,1.25335 2.19998,2.81335 2.2,4.68 -2e-5,1.86668 -0.78669,3.45335 -2.36,4.76 -1.57335,1.28001 -3.49335,1.92001 -5.76,1.92 l -5.24,0 m 0,-1.64 5.36,0 c 1.73332,1e-5 3.22665,-0.49332 4.48,-1.48 1.25332,-0.98665 1.87998,-2.17332 1.88,-3.56 -2e-5,-1.35998 -0.57335,-2.51998 -1.72,-3.48 -1.12002,-0.98665 -2.46668,-1.47998 -4.04,-1.48 l -5.96,0 0,10"
         style=""
         id="path3823" />
      <path
         d="m 205.92562,212.0475 0,-19.24 -1.36,0 c -0.72,2e-5 -1.08,-0.27998 -1.08,-0.84 0,-0.53331 0.36,-0.79998 1.08,-0.8 l 8.8,0 c 2.58666,2e-5 4.75999,0.98669 6.52,2.96 1.78665,1.94668 2.67998,4.33335 2.68,7.16 l 0,2.24 c -2e-5,2.85334 -0.89335,5.26667 -2.68,7.24 -1.76001,1.94667 -3.93334,2.92 -6.52,2.92 l -8.8,0 c -0.72,0 -1.08,-0.28 -1.08,-0.84 0,-0.53333 0.36,-0.8 1.08,-0.8 l 1.36,0 m 15,-11.08 c -1e-5,-0.53332 -0.12001,-1.19999 -0.36,-2 -0.24001,-0.79998 -0.62668,-1.67998 -1.16,-2.64 -0.50668,-0.98665 -1.30668,-1.81331 -2.4,-2.48 -1.06668,-0.69331 -2.30667,-1.03998 -3.72,-1.04 l -5.72,0 0,19.24 6,0 c 1.91999,0 3.62666,-0.82666 5.12,-2.48 1.49332,-1.65333 2.23999,-3.54666 2.24,-5.68 l 0,-2.92"
         style=""
         id="path3825" />
      <path
         d="m 232.35,202.8075 0,9.24 5.52,0 c 0.74665,0 1.11999,0.26667 1.12,0.8 -1e-5,0.56 -0.37335,0.84 -1.12,0.84 l -9.32,0 c -0.72,0 -1.08,-0.28 -1.08,-0.84 0,-0.53333 0.36,-0.8 1.08,-0.8 l 2.16,0 0,-19.24 -2.16,0 c -0.72,2e-5 -1.08,-0.27998 -1.08,-0.84 0,-0.53331 0.36,-0.79998 1.08,-0.8 l 18,0 0,5.56 c -2e-5,0.72002 -0.28002,1.08002 -0.84,1.08 -0.53335,2e-5 -0.80002,-0.35998 -0.8,-1.08 l 0,-3.92 -12.56,0 0,8.36 5.8,0 0,-1.8 c -1e-5,-0.71998 0.26665,-1.07998 0.8,-1.08 0.55999,2e-5 0.83999,0.36002 0.84,1.08 l 0,5.24 c -1e-5,0.72001 -0.28001,1.08001 -0.84,1.08 -0.53335,1e-5 -0.80001,-0.35999 -0.8,-1.08 l 0,-1.8 -5.8,0"
         style=""
         id="path3827" />
      <path
         d="m 181.94125,262.0475 0,-19.24 -1.36,0 c -0.72,2e-5 -1.08,-0.27998 -1.08,-0.84 0,-0.53331 0.36,-0.79998 1.08,-0.8 l 8.8,0 c 2.58665,2e-5 4.75998,0.98669 6.52,2.96 1.78665,1.94668 2.67998,4.33335 2.68,7.16 l 0,2.24 c -2e-5,2.85334 -0.89335,5.26667 -2.68,7.24 -1.76002,1.94667 -3.93335,2.92 -6.52,2.92 l -8.8,0 c -0.72,0 -1.08,-0.28 -1.08,-0.84 0,-0.53333 0.36,-0.8 1.08,-0.8 l 1.36,0 m 15,-11.08 c -2e-5,-0.53332 -0.12002,-1.19999 -0.36,-2 -0.24002,-0.79998 -0.62668,-1.67998 -1.16,-2.64 -0.50668,-0.98665 -1.30668,-1.81331 -2.4,-2.48 -1.06668,-0.69331 -2.30668,-1.03998 -3.72,-1.04 l -5.72,0 0,19.24 6,0 c 1.91999,0 3.62665,-0.82666 5.12,-2.48 1.49331,-1.65333 2.23998,-3.54666 2.24,-5.68 l 0,-2.92"
         style=""
         id="path3829" />
      <path
         d="m 208.36562,253.6475 0,8.4 3,0 c 0.71999,0 1.07999,0.26667 1.08,0.8 -1e-5,0.56 -0.36001,0.84 -1.08,0.84 l -6.8,0 c -0.72,0 -1.08,-0.28 -1.08,-0.84 0,-0.53333 0.36,-0.8 1.08,-0.8 l 2.16,0 0,-19.24 -2.16,0 c -0.72,2e-5 -1.08,-0.27998 -1.08,-0.84 0,-0.53331 0.36,-0.79998 1.08,-0.8 l 9.92,0 c 1.94666,2e-5 3.62666,0.62669 5.04,1.88 1.43999,1.22669 2.15999,2.68002 2.16001,4.36 -2e-5,2.58668 -1.85336,4.52001 -5.56,5.8 1.25331,0.85334 2.30664,1.82668 3.15999,2.92 0.85332,1.09334 2.09332,3.06667 3.72,5.92 l 1.24001,0 c 0.71997,0 1.07997,0.26667 1.07999,0.8 -2e-5,0.56 -0.36002,0.84 -1.07999,0.84 l -2.28001,0 c -1.76001,-3.25333 -3.21335,-5.55999 -4.36,-6.92 -1.12001,-1.38666 -2.44001,-2.42666 -3.96,-3.12 l -5.28,0 m 0,-1.64 4.56,0 c 1.97333,1e-5 3.65332,-0.45332 5.04,-1.36 1.38665,-0.90665 2.07999,-1.99998 2.08,-3.28 -1e-5,-1.19998 -0.57335,-2.25331 -1.72,-3.16 -1.12001,-0.93331 -2.40001,-1.39998 -3.84,-1.4 l -6.12,0 0,9.2"
         style=""
         id="path3831" />
      <path
         d="m 238.55,242.8075 0,19.24 5.56,0 c 0.74665,0 1.11998,0.26667 1.12,0.8 -2e-5,0.56 -0.37335,0.84 -1.12,0.84 l -12.76,0 c -0.72,0 -1.08,-0.28 -1.08,-0.84 0,-0.53333 0.36,-0.8 1.08,-0.8 l 5.56,0 0,-19.24 -5.56,0 c -0.72,2e-5 -1.08,-0.27998 -1.08,-0.84 0,-0.53331 0.36,-0.79998 1.08,-0.8 l 12.76,0 c 0.74665,2e-5 1.11998,0.26669 1.12,0.8 -2e-5,0.56002 -0.37335,0.84002 -1.12,0.84 l -5.56,0"
         style=""
         id="path3833" />
      <path
         d="m 260.41437,263.6875 -8,-20.88 -1.24,0 c -0.72,2e-5 -1.08,-0.27998 -1.07999,-0.84 -1e-5,-0.53331 0.35999,-0.79998 1.07999,-0.8 l 6.04001,0 c 0.71999,2e-5 1.07999,0.26669 1.07999,0.8 0,0.56002 -0.36,0.84002 -1.07999,0.84 l -3.08001,0 7.44,19.24 0.12,0 7.72,-19.24 -3.12,0 c -0.72001,2e-5 -1.08001,-0.27998 -1.07999,-0.84 -2e-5,-0.53331 0.35998,-0.79998 1.07999,-0.8 l 6,0 c 0.71998,2e-5 1.07998,0.26669 1.08,0.8 -2e-5,0.56002 -0.36002,0.84002 -1.08,0.84 l -1.24,0 -8.36,20.88 -2.28,0"
         style=""
         id="path3835" />
      <path
         d="m 280.31875,252.8075 0,9.24 12.56,0 0,-4.76 c -2e-5,-0.71999 0.27998,-1.07999 0.84,-1.08 0.53331,1e-5 0.79998,0.36001 0.8,1.08 l 0,6.4 -18,0 c -0.72,0 -1.08,-0.28 -1.08,-0.84 0,-0.53333 0.36,-0.8 1.08,-0.8 l 2.16,0 0,-19.24 -2.16,0 c -0.72,2e-5 -1.08,-0.27998 -1.08,-0.84 0,-0.53331 0.36,-0.79998 1.08,-0.8 l 17.16,0 0,5.56 c -2e-5,0.72002 -0.28002,1.08002 -0.84,1.08 -0.53335,2e-5 -0.80002,-0.35998 -0.8,-1.08 l 0,-3.92 -11.72,0 0,8.36 5.8,0 0,-1.8 c -10e-6,-0.71998 0.27999,-1.07998 0.84,-1.08 0.53332,2e-5 0.79999,0.36002 0.8,1.08 l 0,5.24 c -1e-5,0.72001 -0.26668,1.08001 -0.8,1.08 -0.56001,1e-5 -0.84001,-0.35999 -0.84,-1.08 l 0,-1.8 -5.8,0"
         style=""
         id="path3837" />
    </g>
  </g>
</svg>
